HIERARCHY
ROOT Pelvis
{
	OFFSET 0.000000 0.000000 0.000000
	CHANNELS 6 Xposition Yposition Zposition Xrotation Yrotation Zrotation
	JOINT LeftUpLeg_virtual
	{
		OFFSET 0.000000 0.000000 0.000000
		CHANNELS 3 Xrotation Yrotation Zrotation
		JOINT LeftUpLeg
		{
			OFFSET 18.735201 -5.666702 -4.541200
			CHANNELS 3 Xrotation Yrotation Zrotation
			JOINT LeftLeg
			{
				OFFSET -0.021200 -31.938179 0.493100
				CHANNELS 3 Xrotation Yrotation Zrotation
				JOINT LeftFoot
				{
					OFFSET 0.021200 -31.938179 -4.336299
					CHANNELS 3 Xrotation Yrotation Zrotation
					JOINT LeftToeBase
					{
						OFFSET 0.943001 -26.722000 15.023500
						CHANNELS 3 Xrotation Yrotation Zrotation
						End Site
						{
							OFFSET 0 0 0
						}
					}
				}
			}
		}
	}
	JOINT RightUpLeg_virtual
	{
		OFFSET 0.000000 0.000000 0.000000
		CHANNELS 3 Xrotation Yrotation Zrotation
		JOINT RightUpLeg
		{
			OFFSET -18.735201 -5.666702 -4.541200
			CHANNELS 3 Xrotation Yrotation Zrotation
			JOINT RightLeg
			{
				OFFSET 0.018946 -31.938133 0.493100
				CHANNELS 3 Xrotation Yrotation Zrotation
				JOINT RightFoot
				{
					OFFSET -0.018946 -31.938126 -4.336299
					CHANNELS 3 Xrotation Yrotation Zrotation
					JOINT RightToeBase
					{
						OFFSET -0.943001 -26.722004 15.023500
						CHANNELS 3 Xrotation Yrotation Zrotation
						End Site
						{
							OFFSET 0 0 0
						}
					}
				}
			}
		}
	}
	JOINT Hips_virtual
	{
		OFFSET 0.000000 0.000000 0.000000
		CHANNELS 3 Xrotation Yrotation Zrotation
		JOINT Hips
		{
			OFFSET -0.000000 -0.000000 -0.000000
			CHANNELS 3 Xrotation Yrotation Zrotation
			JOINT Spine
			{
				OFFSET 0.000000 10.199997 -0.299500
				CHANNELS 3 Xrotation Yrotation Zrotation
				JOINT Spine1
				{
					OFFSET 0.000000 11.900002 -1.516600
					CHANNELS 3 Xrotation Yrotation Zrotation
					JOINT Spine2
					{
						OFFSET 0.000000 13.600006 -2.842500
						CHANNELS 3 Xrotation Yrotation Zrotation
						JOINT Neck_virtual
						{
							OFFSET 0.000000 0.000000 0.000000
							CHANNELS 3 Xrotation Yrotation Zrotation
							JOINT Neck
							{
								OFFSET 0.000000 9.624100 -2.890100
								CHANNELS 3 Xrotation Yrotation Zrotation
								JOINT Head
								{
									OFFSET 0.000000 14.068802 -1.351900
									CHANNELS 3 Xrotation Yrotation Zrotation
									End Site
									{
										OFFSET 0 0 0
									}
								}
							}
						}
						JOINT LeftShoulder_virtual
						{
							OFFSET 0.000000 0.000000 0.000000
							CHANNELS 3 Xrotation Yrotation Zrotation
							JOINT LeftShoulder
							{
								OFFSET 15.263000 10.923401 -0.547700
								CHANNELS 3 Xrotation Yrotation Zrotation
								JOINT LeftArm
								{
									OFFSET 25.438599 -2.830597 -13.032500
									CHANNELS 3 Xrotation Yrotation Zrotation
									JOINT LeftForeArm
									{
										OFFSET 29.960503 0.000000 0.000000
										CHANNELS 3 Xrotation Yrotation Zrotation
										JOINT LeftHand
										{
											OFFSET 27.849251 0.000000 0.000000
											CHANNELS 3 Xrotation Yrotation Zrotation
											End Site
											{
												OFFSET 0 0 0
											}
										}
									}
								}
							}
						}
						JOINT RightShoulder_virtual
						{
							OFFSET 0.000000 0.000000 0.000000
							CHANNELS 3 Xrotation Yrotation Zrotation
							JOINT RightShoulder
							{
								OFFSET -15.263000 10.923401 -0.547700
								CHANNELS 3 Xrotation Yrotation Zrotation
								JOINT RightArm
								{
									OFFSET -25.438599 -2.830597 -13.032500
									CHANNELS 3 Xrotation Yrotation Zrotation
									JOINT RightForeArm
									{
										OFFSET -29.960503 0.000000 0.000000
										CHANNELS 3 Xrotation Yrotation Zrotation
										JOINT RightHand
										{
											OFFSET -27.849251 0.000000 0.000000
											CHANNELS 3 Xrotation Yrotation Zrotation
											End Site
											{
												OFFSET 0 0 0
											}
										}
									}
								}
							}
						}
					}
				}
			}
		}
	}
}
MOTION
Frames: 12
Frame Time: 0.03333333
-34.023144 92.272537 -28.889919 0.000000 0.000000 0.000000 4.352073 -20.627665 0.837012 -37.853024 5.155808 16.831044 57.991386 10.475230 -3.579719 3.971347 11.773831 -2.589525 0.000000 0.000000 0.000000 15.536905 1.044151 2.437360 -7.687787 -6.799868 -11.140209 28.855360 -1.824406 1.133364 -20.777844 -6.642579 11.387768 0.000000 0.000000 0.000000 2.055537 3.328838 -0.374992 -1.228969 4.920519 -3.589974 3.674426 2.256386 -4.524853 0.298822 1.956149 -2.173883 0.000000 0.000000 0.000000 4.099730 1.351292 -1.069574 -0.802064 0.488885 0.301603 0.000000 0.000000 0.000000 2.935422 2.164169 -1.550752 1.097570 -1.200701 -7.508432 -11.118922 11.879137 -43.640592 -3.614370 -31.898520 -0.710696 0.000000 0.000000 0.000000 3.754973 1.017555 -0.567365 1.289721 -0.208483 8.664419 -5.763811 -21.539657 32.989175 -2.471596 25.966009 1.498150 0.000000 0.000000 0.000000 
-33.887680 92.562233 -29.225491 0.000000 0.000000 0.000000 5.896482 -20.392537 1.502450 -36.006626 5.357349 17.249675 58.808496 11.602225 -3.310490 4.333388 12.748912 -1.169036 0.000000 0.000000 0.000000 15.479751 1.026937 2.057920 -7.737378 -6.744988 -11.549594 29.306354 -0.854305 1.343131 -20.354172 -5.838559 12.321507 0.000000 0.000000 0.000000 2.466777 3.642306 -0.404928 -1.153854 3.024627 -3.476207 3.573362 2.821307 -4.708847 0.305476 2.254080 -2.341152 0.000000 0.000000 0.000000 4.138716 1.656256 -1.141514 -0.866938 0.504624 0.351046 0.000000 0.000000 0.000000 3.030139 2.631337 -1.754642 1.210930 -0.377675 -7.836378 -7.043923 13.542685 -45.303023 -2.557448 -29.596958 -0.491111 0.000000 0.000000 0.000000 3.702651 1.334428 -0.761163 1.063531 0.178258 8.617645 -6.327405 -20.736857 32.183069 -2.426797 25.604624 1.270890 0.000000 0.000000 0.000000 
-33.743828 92.809311 -29.558201 0.000000 0.000000 0.000000 7.299425 -19.736038 1.980809 -34.289483 5.702535 17.566492 59.478489 12.685634 -3.159143 4.547167 13.727380 0.038043 0.000000 0.000000 0.000000 15.499615 1.071800 1.664523 -7.689800 -6.685019 -11.966230 29.772187 0.138941 1.588894 -19.953488 -5.026949 13.335156 0.000000 0.000000 0.000000 2.892610 3.902746 -0.421186 -1.051564 1.235778 -3.409441 3.478648 3.321244 -4.814170 0.320594 2.509378 -2.468274 0.000000 0.000000 0.000000 4.167299 1.927612 -1.180366 -0.943537 0.519736 0.402258 0.000000 0.000000 0.000000 3.052996 3.059488 -1.918705 1.269460 0.374413 -8.047531 -3.399434 15.095244 -46.864359 -1.716808 -27.302353 -0.345671 0.000000 0.000000 0.000000 3.666377 1.608714 -0.927154 0.853967 0.512572 8.612466 -6.929447 -20.112718 31.427732 -2.424115 25.180225 1.040521 0.000000 0.000000 0.000000 
-33.511223 93.037170 -29.880215 0.000000 0.000000 0.000000 8.445870 -18.812503 2.322702 -32.825930 6.094034 17.826167 59.806789 13.655076 -3.042873 4.517184 14.607628 1.072087 0.000000 0.000000 0.000000 15.568132 1.275554 1.283564 -7.559439 -6.590927 -12.336788 30.159295 1.111429 1.883053 -19.624585 -4.260942 14.416158 0.000000 0.000000 0.000000 3.332871 4.129962 -0.420739 -0.889311 -0.345441 -3.365121 3.353123 3.735755 -4.844729 0.321775 2.713262 -2.555942 0.000000 0.000000 0.000000 4.163023 2.157372 -1.192592 -1.026728 0.531773 0.453955 0.000000 0.000000 0.000000 2.987606 3.425958 -2.044009 1.252833 0.994375 -8.153988 -0.361539 16.611044 -48.279421 -1.095887 -25.007945 -0.266319 0.000000 0.000000 0.000000 3.616930 1.825506 -1.055628 0.664651 0.750732 8.694027 -7.531264 -19.696413 30.729861 -2.452020 24.645887 0.813086 0.000000 0.000000 0.000000 
-33.191647 93.206375 -30.180809 0.000000 0.000000 0.000000 9.379182 -17.769019 2.616404 -31.589307 6.473677 18.095767 59.856301 14.488366 -2.913717 4.294192 15.342582 1.984644 0.000000 0.000000 0.000000 15.697952 1.576238 0.903577 -7.346429 -6.481739 -12.688996 30.438803 1.965763 2.194193 -19.395362 -3.619019 15.450322 0.000000 0.000000 0.000000 3.791491 4.388677 -0.406013 -0.670591 -1.565954 -3.318733 3.245119 4.058105 -4.771341 0.336637 2.862868 -2.585493 0.000000 0.000000 0.000000 4.162407 2.331379 -1.167381 -1.113589 0.532928 0.503586 0.000000 0.000000 0.000000 2.888337 3.720106 -2.108458 1.206366 1.457449 -8.068905 2.298854 18.067397 -49.377732 -0.637868 -22.663389 -0.201385 0.000000 0.000000 0.000000 3.590669 1.988453 -1.133953 0.502996 0.907769 8.838084 -8.088598 -19.377726 30.089008 -2.486439 24.136365 0.586976 0.000000 0.000000 0.000000 
-32.720139 93.286850 -30.434361 0.000000 0.000000 0.000000 10.188867 -16.596289 2.941989 -30.508939 6.841225 18.456237 59.721774 15.122414 -2.740798 3.992449 15.863714 2.773684 0.000000 0.000000 0.000000 15.890691 1.998745 0.528462 -7.056939 -6.352163 -13.016695 30.614158 2.630986 2.499929 -19.258224 -3.157249 16.354447 0.000000 0.000000 0.000000 4.256265 4.725251 -0.380126 -0.379844 -2.288725 -3.261893 3.087435 4.317622 -4.629216 0.327085 2.972953 -2.574586 0.000000 0.000000 0.000000 4.115181 2.456479 -1.121933 -1.204028 0.515551 0.550087 0.000000 0.000000 0.000000 2.733525 3.952571 -2.126782 1.112458 1.816835 -7.862381 4.466455 19.721411 -50.217743 -0.326073 -20.268902 -0.134313 0.000000 0.000000 0.000000 3.547029 2.106755 -1.185132 0.379646 0.951049 9.007163 -8.595713 -19.176595 29.508183 -2.529636 23.632335 0.366034 0.000000 0.000000 0.000000 
-32.086609 93.272774 -30.634548 0.000000 0.000000 0.000000 10.908456 -15.332361 3.352705 -29.535685 7.177632 18.947343 59.426874 15.420991 -2.538409 3.694446 16.056921 3.302954 0.000000 0.000000 0.000000 16.114986 2.563389 0.162323 -6.732839 -6.191318 -13.311262 30.618679 3.039015 2.776400 -19.249536 -2.930873 17.041535 0.000000 0.000000 0.000000 4.728782 5.157769 -0.347454 -0.002511 -2.504922 -3.181645 2.884990 4.468576 -4.441964 0.294899 3.023272 -2.536275 0.000000 0.000000 0.000000 4.033969 2.511320 -1.067302 -1.297214 0.476997 0.591340 0.000000 0.000000 0.000000 2.549576 4.102386 -2.107508 0.987590 1.994501 -7.564189 6.176575 21.360717 -50.817946 -0.129684 -17.881370 -0.061901 0.000000 0.000000 0.000000 3.477028 2.158278 -1.220360 0.277610 0.850077 9.171026 -9.003978 -19.111342 29.006540 -2.572669 23.108352 0.161655 0.000000 0.000000 0.000000 
-31.338543 93.105530 -30.839966 0.000000 0.000000 0.000000 11.476081 -14.039297 3.872035 -28.737587 7.443827 19.588342 59.027048 15.262840 -2.354858 3.477762 15.831631 3.405782 0.000000 0.000000 0.000000 16.378292 3.262018 -0.163471 -6.375424 -6.006840 -13.541879 30.471953 3.158097 3.009865 -19.351289 -2.961350 17.469682 0.000000 0.000000 0.000000 5.201032 5.688475 -0.308538 0.481855 -2.203632 -3.050911 2.656411 4.497134 -4.208184 0.249445 3.008873 -2.468334 0.000000 0.000000 0.000000 3.927419 2.489988 -1.006055 -1.393786 0.416544 0.623292 0.000000 0.000000 0.000000 2.357436 4.166175 -2.049571 0.849234 1.972959 -7.168279 7.484976 22.891546 -51.162147 -0.031428 -15.550640 0.007378 0.000000 0.000000 0.000000 3.396142 2.140120 -1.237771 0.200334 0.612909 9.304820 -9.222544 -19.085488 28.646604 -2.579234 22.662909 -0.011294 0.000000 0.000000 0.000000 
-30.405823 92.734665 -31.077496 0.000000 0.000000 0.000000 11.982479 -13.041653 4.420536 -27.952018 7.615739 20.208923 58.521484 14.582157 -2.246347 3.354482 15.148615 2.948828 0.000000 0.000000 0.000000 16.661888 4.099422 -0.450348 -6.011788 -5.793556 -13.708962 30.172607 2.995069 3.194727 -19.570850 -3.240307 17.633740 0.000000 0.000000 0.000000 5.649865 6.305857 -0.270709 0.964622 -1.458724 -2.931980 2.367189 4.424528 -3.967074 0.170549 2.941592 -2.391473 0.000000 0.000000 0.000000 3.769202 2.402901 -0.952805 -1.495020 0.336652 0.641405 0.000000 0.000000 0.000000 2.137557 4.156542 -1.969383 0.681947 1.795742 -6.740077 8.289383 24.389701 -51.266054 -0.028573 -13.345110 0.077233 0.000000 0.000000 0.000000 3.278126 2.061750 -1.248894 0.141240 0.248425 9.379937 -9.297722 -19.131500 28.416768 -2.568082 22.271119 -0.148079 0.000000 0.000000 0.000000 
-29.329628 92.163635 -31.391922 0.000000 0.000000 0.000000 12.420541 -12.290039 5.015062 -27.207191 7.698678 20.839257 57.800257 13.401924 -2.232360 3.188192 14.021923 1.920093 0.000000 0.000000 0.000000 16.948500 4.960843 -0.725671 -5.672664 -5.577082 -13.864011 29.759971 2.593502 3.349254 -19.880099 -3.732458 17.594426 0.000000 0.000000 0.000000 6.052544 6.989333 -0.241831 1.388497 -0.343737 -2.851264 2.096140 4.271713 -3.737047 0.100940 2.832724 -2.315254 0.000000 0.000000 0.000000 3.605520 2.255358 -0.911803 -1.598549 0.236598 0.643992 0.000000 0.000000 0.000000 1.942195 4.088277 -1.879395 0.537195 1.504534 -6.316372 8.858796 25.771316 -51.156836 -0.093601 -11.294171 0.156050 0.000000 0.000000 0.000000 3.159748 1.937750 -1.249670 0.089419 -0.216434 9.410063 -9.288788 -19.263696 28.250993 -2.552418 21.916542 -0.263493 0.000000 0.000000 0.000000 
-28.182936 91.417015 -31.754704 0.000000 0.000000 0.000000 12.700300 -11.599192 5.750861 -26.646101 7.679510 21.631359 56.930132 11.817294 -2.344359 2.954984 12.542845 0.373690 0.000000 0.000000 0.000000 17.185695 5.747861 -1.010012 -5.428333 -5.372177 -14.048854 29.243574 1.994743 3.462454 -20.264365 -4.388025 17.367175 0.000000 0.000000 0.000000 6.384303 7.694107 -0.219618 1.657891 0.992529 -2.801955 1.822921 4.056275 -3.530720 0.027466 2.691502 -2.245057 0.000000 0.000000 0.000000 3.399556 2.070049 -0.873833 -1.717889 0.128028 0.641059 0.000000 0.000000 0.000000 1.785898 3.973743 -1.795606 0.425839 1.132229 -5.953006 9.177747 26.995800 -50.909426 -0.204006 -9.457912 0.234356 0.000000 0.000000 0.000000 3.042963 1.782009 -1.239587 0.050625 -0.731391 9.427464 -9.189036 -19.383380 28.166092 -2.523934 21.704673 -0.352049 0.000000 0.000000 0.000000 
-26.837803 90.549133 -32.165249 0.000000 0.000000 0.000000 12.782642 -10.871843 6.273317 -26.301836 7.687475 22.229853 55.627721 9.890621 -2.694944 2.370421 10.819261 -1.818620 0.000000 0.000000 0.000000 17.358714 6.419571 -1.319561 -5.289143 -5.185162 -14.286942 28.632459 1.245305 3.534440 -20.719536 -5.161196 16.986023 0.000000 0.000000 0.000000 6.655607 8.462218 -0.187512 1.865211 2.620360 -2.631219 1.516819 3.814200 -3.361291 -0.068629 2.536108 -2.188973 0.000000 0.000000 0.000000 3.143461 1.858281 -0.849540 -1.854099 0.016543 0.628627 0.000000 0.000000 0.000000 1.640455 3.824853 -1.723227 0.322298 0.711227 -5.677099 9.227458 28.061190 -50.579491 -0.361241 -7.871143 0.298526 0.000000 0.000000 0.000000 2.915876 1.606986 -1.231120 0.009600 -1.253913 9.391576 -9.168883 -19.498863 28.089051 -2.532394 21.640582 -0.421770 0.000000 0.000000 0.000000 
